<svg width="200" height="200" viewBox="0 0 200 200" fill="none" xmlns="http://www.w3.org/2000/svg">
  <!-- Burbuja de diálogo -->
  <path d="M100 30C73.49 30 52 51.49 52 78C52 89.97 56.334 100.97 63.667 109.333L56 132L78.667 124.333C85.208 128.059 92.378 130 100 130C126.51 130 148 108.51 148 78C148 51.49 126.51 30 100 30Z" fill="#a76834"/>
  
  <!-- Círculo del mundo -->
  <circle cx="100" cy="78" r="35" fill="#91ac90" stroke="#eae3d6" stroke-width="3"/>
  
  <!-- Ondas representando océanos -->
  <path d="M80 67C85 61 95 73 100 67C105 61 115 73 120 67" stroke="#406958" stroke-width="5" stroke-linecap="round"/>
  <path d="M80 78C85 72 95 84 100 78C105 72 115 84 120 78" stroke="#406958" stroke-width="5" stroke-linecap="round"/>
  <path d="M80 89C85 83 95 95 100 89C105 83 115 95 120 89" stroke="#406958" stroke-width="5" stroke-linecap="round"/>
</svg>
